<svg id="Layer_1" data-name="Layer 1" xmlns="http://www.w3.org/2000/svg" viewBox="0 0 131.47 306.26"><defs><style>.cls-1{fill:#5a5a5a;}</style></defs><title>paper-clip</title><g id="_Group_" data-name="&lt;Group&gt;"><path class="cls-1" d="M255.1,92.21a10,10,0,0,1,10,10.14L263.71,264c-.23,27-8.48,49.39-23.07,63.74a59.33,59.33,0,0,1-12.39,9.38c-18.18,10.29-40.12,9.9-58.69-1-23.13-13.62-36.23-40.26-36-73.09l1.52-180.1c.24-29.24,25.32-44.8,48.81-44.6C215.84,38.56,230.19,62,230,83.61l-1.54,181.62c-.2,24.07-14.65,36.55-28.83,36.42-14-.12-28.11-12.82-27.9-36.88l1-122.84a10.06,10.06,0,1,1,20.12.17l-1,122.84c-.1,10.73,4,16.55,8,16.59s8.46-5.72,8.55-16.48l1.54-181.62c.16-18.32-14-24.95-26.14-25-13.63-.12-28.37,7.56-28.52,24.65l-1.51,180.1c-.22,25.44,9.28,45.7,26,55.58,12.3,7.23,26.72,7.55,38.58.86,16-9.09,25-28.91,25.25-55.78L245,102.17a10.06,10.06,0,0,1,10.14-10Z" transform="translate(-133.6 -38.27)"/></g></svg>