<?xml version="1.0" encoding="utf-8"?>
<!-- Generator: Adobe Illustrator 16.0.0, SVG Export Plug-In . SVG Version: 6.00 Build 0)  -->
<!DOCTYPE svg PUBLIC "-//W3C//DTD SVG 1.0//EN" "http://www.w3.org/TR/2001/REC-SVG-20010904/DTD/svg10.dtd">
<svg version="1.0" id="Layer_1" xmlns="http://www.w3.org/2000/svg" xmlns:xlink="http://www.w3.org/1999/xlink" x="0px" y="0px"
	 width="32px" height="32px" viewBox="0 0 32 32" enable-background="new 0 0 32 32" xml:space="preserve">
<g>
	<path fill="#EACA44" d="M5.958,9.785c-0.53,1.114-0.345,2.483,0.577,3.406c0.923,0.922,2.292,1.107,3.406,0.577L5.958,9.785z"/>
	<path fill="#EF4D4D" d="M14.313,5.413C11.189,2.289,6.124,2.289,3,5.413l11.313,11.313C17.438,13.603,17.438,8.537,14.313,5.413z"
		/>
	<path fill="#EF4D4D" d="M14.313,5.413c1.032,1.031,1.716,2.275,2.065,3.591l2.178-2.177c1.562-1.562,1.562-4.095,0-5.657
		c-1.562-1.562-4.095-1.562-5.657,0l-2.177,2.178C12.038,3.697,13.282,4.381,14.313,5.413z"/>
	<path opacity="0.15" d="M11.523,2.547l-0.801,0.801v0.001c0.636,0.169,1.254,0.417,1.84,0.745c0.053,0.03,0.104,0.062,0.156,0.093
		c0.224,0.133,0.441,0.276,0.654,0.433c0.066,0.048,0.134,0.095,0.199,0.146c0.257,0.201,0.506,0.413,0.741,0.648
		s0.447,0.484,0.647,0.741c0.052,0.065,0.099,0.133,0.146,0.199c0.156,0.213,0.3,0.431,0.433,0.654
		c0.03,0.053,0.062,0.104,0.093,0.156c0.328,0.586,0.576,1.204,0.745,1.84c0.001,0,0.001,0,0.001,0l0.801-0.801
		c-0.428-1.277-1.142-2.48-2.159-3.497C14.004,3.688,12.801,2.975,11.523,2.547z"/>
	<path opacity="0.15" d="M14.861,16.121c0.002-0.002,0.003-0.004,0.005-0.006c1.656-2.033,2.142-4.684,1.499-7.097l2.203-2.204
		c1.519-1.519,1.549-3.948,0.114-5.518c0.197,1.358-0.211,2.787-1.256,3.831c0,0-1.551,1.582-1.873,1.903
		c-0.001,2.814-1.213,5.426-3.361,7.574l2.121,2.121C14.509,16.532,14.69,16.33,14.861,16.121z"/>
	<path fill="#DAE2E5" d="M16,26.999c-2.762,0-5,2.238-5,5h10C21,29.237,18.762,26.999,16,26.999z"/>
	<circle fill="#434854" cx="27.5" cy="16.499" r="1.5"/>
	<g>
		<path fill="#434854" d="M26.982,14.054l-7.18-7.18c-0.162,0.229-0.334,0.455-0.539,0.66l-0.814,0.814l6.898,6.898
			C25.698,14.647,26.282,14.202,26.982,14.054z"/>
		<path fill="#434854" d="M25.338,17.733l-9.272,9.272c0.813,0.011,1.569,0.229,2.245,0.583l8.651-8.651
			C26.264,18.784,25.684,18.336,25.338,17.733z"/>
	</g>
	<path opacity="0.3" d="M16.065,27.006c0.004,0,0.007,0.001,0.01,0.001c0.25,0.004,0.491,0.032,0.729,0.073
		c0.135,0.022,0.266,0.048,0.396,0.081c0.084,0.021,0.166,0.051,0.248,0.076c0.298,0.091,0.582,0.206,0.854,0.348
		c0.002,0.002,0.005,0.003,0.008,0.004l0.746-0.746c-0.627-0.372-1.325-0.633-2.072-0.756L16.065,27.006z"/>
</g>
<g>
</g>
<g>
</g>
<g>
</g>
<g>
</g>
<g>
</g>
<g>
</g>
</svg>
